<svg width="814" height="375" viewBox="0 0 814 375" fill="none" xmlns="http://www.w3.org/2000/svg">
<path fill-rule="evenodd" clip-rule="evenodd" d="M740.81 7.06804C741.204 2.03809 735.591 -1.20243 731.432 1.65358L708.27 17.5584C704.677 20.0258 701.988 23.5994 700.613 27.7354L679.937 89.9189C677.879 96.1094 685.785 100.674 690.117 95.7962L733.632 46.7991C736.526 43.5401 738.277 39.4247 738.617 35.0793L740.81 7.06804ZM730.186 14.6393L728.647 34.2988C728.477 36.4715 727.602 38.5292 726.155 40.1587L695.57 74.5969L710.102 30.8905C710.789 28.8225 712.134 27.0357 713.93 25.802L730.186 14.6393ZM806.638 72.3247C811.667 71.9309 814.908 77.5436 812.052 81.7028L796.147 104.865C793.68 108.458 790.106 111.147 785.97 112.522L723.787 133.197C717.596 135.256 713.032 127.349 717.909 123.018L766.907 79.5027C770.166 76.6084 774.281 74.8579 778.626 74.5177L806.638 72.3247ZM787.904 99.2041L799.066 82.9481L779.407 84.4872C777.234 84.6573 775.176 85.5325 773.547 86.9797L739.109 117.565L782.815 103.033C784.883 102.345 786.67 101.001 787.904 99.2041ZM114.536 104.301C116.925 104.642 118.547 105.367 119.4 106.477C120.339 107.586 120.808 109.037 120.808 110.829C120.808 116.717 117.651 119.447 111.336 119.021L106.856 118.637C101.821 118.21 96.7867 117.869 91.752 117.613C86.8027 117.357 81.5973 117.229 76.136 117.229H70.376C69.352 129.858 68.2853 141.378 67.176 151.789L89.192 151.405C92.3493 151.405 94.44 151.959 95.464 153.069C96.5733 154.178 97.128 155.671 97.128 157.549C97.128 160.45 96.2747 162.754 94.568 164.461C92.8613 166.082 90.4293 166.893 87.272 166.893H65.384L64.616 172.397C62.824 186.477 58.984 196.503 53.096 202.477C47.2933 208.45 39.272 211.437 29.032 211.437C23.2293 211.437 17.896 210.199 13.032 207.725C8.16798 205.165 4.58398 202.093 2.27998 198.509C1.34132 197.058 0.871985 195.309 0.871985 193.261C0.871985 191.213 1.34132 189.421 2.27998 187.885C3.30398 186.349 4.54132 185.581 5.99198 185.581C7.01599 185.581 7.99732 185.922 8.93599 186.605C9.95998 187.287 11.24 188.61 12.776 190.573C16.872 195.949 21.9493 198.637 28.008 198.637C32.872 198.637 36.9253 196.674 40.168 192.749C43.496 188.738 45.6293 182.466 46.568 173.933L47.336 166.893H41.192C39.2293 166.893 37.5227 166.338 36.072 165.229C34.7067 164.119 34.024 162.541 34.024 160.493C34.024 157.847 34.7067 155.842 36.072 154.477C37.4373 153.026 39.4427 152.301 42.088 152.301C44.4773 152.301 46.824 152.258 49.128 152.173C50.152 142.786 51.2613 131.394 52.456 117.997C43.24 118.85 36.7547 120.343 33 122.477C29.2453 124.61 27.368 127.767 27.368 131.949C27.368 134.85 28.2213 137.623 29.928 140.269C30.44 141.037 30.696 141.805 30.696 142.573C30.696 144.109 29.8427 145.474 28.136 146.669C26.4293 147.778 24.5093 148.333 22.376 148.333C20.072 148.333 18.1093 147.65 16.488 146.285C15.464 145.431 14.4827 143.682 13.544 141.037C12.6053 138.391 12.136 135.447 12.136 132.205C12.136 121.623 17.5547 113.943 28.392 109.165C39.3147 104.386 55.2293 101.997 76.136 101.997C90.6427 101.997 103.443 102.765 114.536 104.301ZM111.325 211.053C107.485 211.053 104.328 209.303 101.853 205.805C99.4637 202.221 98.269 197.783 98.269 192.493C98.269 186.093 98.6956 180.247 99.549 174.957C100.402 169.581 101.81 163.906 103.773 157.933C104.626 155.373 105.821 153.538 107.357 152.429C108.893 151.319 111.325 150.765 114.653 150.765C116.53 150.765 117.81 151.063 118.493 151.661C119.261 152.258 119.645 153.154 119.645 154.349C119.645 155.031 119.176 157.335 118.237 161.261C117.384 164.418 116.701 167.277 116.189 169.837C114.482 178.797 113.629 184.77 113.629 187.757C113.629 189.549 113.842 190.829 114.269 191.597C114.696 192.279 115.378 192.621 116.317 192.621C117.597 192.621 119.176 191.341 121.053 188.781C123.016 186.221 125.064 182.338 127.197 177.133C129.416 171.927 131.549 165.527 133.597 157.933C134.28 155.373 135.304 153.538 136.669 152.429C138.12 151.319 140.253 150.765 143.069 150.765C145.032 150.765 146.397 151.021 147.165 151.533C147.933 151.959 148.317 152.813 148.317 154.093C148.317 156.226 147.25 162.071 145.117 171.629C142.728 182.551 141.533 189.293 141.533 191.853C141.533 193.474 141.874 194.754 142.557 195.693C143.24 196.546 144.136 196.973 145.245 196.973C146.952 196.973 148.957 195.949 151.261 193.901C152.994 192.353 155.132 190.132 157.673 187.237C157.878 176.989 159.449 167.221 162.386 157.933C163.154 155.458 164.391 153.666 166.098 152.557C167.89 151.362 170.365 150.765 173.522 150.765C175.229 150.765 176.423 150.978 177.106 151.405C177.789 151.831 178.13 152.642 178.13 153.837C178.13 155.202 177.49 158.274 176.21 163.053C175.357 166.466 174.674 169.453 174.162 172.013C173.65 174.487 173.223 177.602 172.882 181.357C175.186 174.701 177.917 169.069 181.074 164.461C184.317 159.853 187.602 156.439 190.93 154.221C194.343 151.917 197.543 150.765 200.53 150.765C203.517 150.765 205.607 151.447 206.802 152.813C208.082 154.178 208.722 156.269 208.722 159.085C208.722 161.815 207.911 166.765 206.29 173.933C205.607 177.005 205.138 179.309 204.882 180.845C209.149 170.349 213.885 162.711 219.09 157.933C224.295 153.154 229.159 150.765 233.682 150.765C239.229 150.765 242.002 153.538 242.002 159.085C242.002 162.413 241.063 168.429 239.186 177.133C237.565 184.557 236.754 189.463 236.754 191.853C236.754 195.266 237.991 196.973 240.466 196.973C242.173 196.973 244.178 195.949 246.482 193.901C247.79 192.733 249.328 191.182 251.096 189.247C250.848 187.601 250.724 185.909 250.724 184.173C250.724 177.687 251.961 171.927 254.436 166.893C256.911 161.773 260.324 157.805 264.676 154.989C269.028 152.087 273.849 150.637 279.14 150.637C285.625 150.637 290.831 152.898 294.756 157.421C298.767 161.858 301.113 167.362 301.796 173.933C305.121 173.72 308.974 173.097 313.356 172.064C314.696 171.176 316.311 170.733 318.202 170.733C320.506 170.733 322.383 171.33 323.834 172.525C325.285 173.719 326.01 175.255 326.01 177.133C326.01 178.839 325.882 180.333 325.626 181.613C325.626 181.954 325.541 182.551 325.37 183.405C325.285 184.258 325.242 185.154 325.242 186.093C325.242 189.933 327.162 192.791 331.002 194.669C334.927 196.546 340.389 197.485 347.386 197.485C354.639 197.485 360.314 196.205 364.41 193.645C368.506 190.999 370.554 187.33 370.554 182.637C370.554 179.735 369.615 177.261 367.738 175.213C365.861 173.079 363.514 171.33 360.698 169.965C357.882 168.514 353.914 166.765 348.794 164.717C342.223 162.157 336.847 159.725 332.666 157.421C328.57 155.117 325.029 152.002 322.042 148.077C319.141 144.066 317.69 139.117 317.69 133.229C317.69 127.085 319.311 121.623 322.554 116.845C325.882 112.066 330.618 108.354 336.762 105.709C342.991 103.063 350.287 101.741 358.65 101.741C364.879 101.741 370.597 102.679 375.802 104.557C381.007 106.349 385.146 109.122 388.218 112.877C391.375 116.631 392.954 121.239 392.954 126.701C392.954 132.077 392.143 136.13 390.522 138.861C388.901 141.591 386.511 142.957 383.354 142.957C381.135 142.957 379.258 142.274 377.722 140.909C376.271 139.543 375.546 137.922 375.546 136.045C375.546 134.423 375.674 132.93 375.93 131.565C376.186 129.005 376.314 127.383 376.314 126.701C376.314 123.117 374.565 120.386 371.066 118.509C367.567 116.631 363.215 115.693 358.01 115.693C350.671 115.693 345.039 117.058 341.114 119.789C337.274 122.434 335.354 126.189 335.354 131.053C335.354 134.295 336.335 137.069 338.298 139.373C340.346 141.677 342.863 143.597 345.85 145.133C348.837 146.669 353.018 148.503 358.394 150.637C364.879 153.282 370.085 155.671 374.01 157.805C377.935 159.938 381.263 162.839 383.994 166.509C386.81 170.178 388.218 174.701 388.218 180.077C388.218 190.146 384.378 197.911 376.698 203.373C369.103 208.749 358.906 211.437 346.106 211.437C334.757 211.437 325.669 209.303 318.842 205.037C312.375 200.914 308.971 194.762 308.63 186.581C306.111 186.995 303.492 187.259 300.772 187.373C299.151 194.541 295.951 200.301 291.172 204.653C286.393 208.919 280.975 211.053 274.916 211.053C269.796 211.053 265.401 209.815 261.732 207.341C259.262 205.635 257.198 203.545 255.539 201.07C253.338 203.201 251.045 205.077 248.658 206.701C244.477 209.602 239.698 211.053 234.322 211.053C229.97 211.053 226.685 209.815 224.466 207.341C222.247 204.781 221.138 201.111 221.138 196.333C221.138 193.943 221.735 189.677 222.93 183.533C224.039 178.157 224.594 174.445 224.594 172.397C224.594 171.031 224.125 170.349 223.186 170.349C222.077 170.349 220.498 171.799 218.45 174.701C216.402 177.517 214.354 181.271 212.306 185.965C210.258 190.658 208.594 195.607 207.314 200.813C206.375 204.909 205.266 207.639 203.986 209.005C202.791 210.37 200.829 211.053 198.098 211.053C195.282 211.053 193.149 209.73 191.698 207.085C190.333 204.354 189.65 201.069 189.65 197.229C189.65 193.986 190.077 189.293 190.93 183.149C191.613 177.687 191.954 174.103 191.954 172.397C191.954 171.031 191.485 170.349 190.546 170.349C189.266 170.349 187.645 171.885 185.682 174.957C183.719 178.029 181.799 181.954 179.922 186.733C178.13 191.511 176.679 196.205 175.57 200.813C174.631 204.823 173.522 207.554 172.242 209.005C171.047 210.37 169.127 211.053 166.482 211.053C163.239 211.053 160.935 209.346 159.57 205.933C159.215 204.986 158.909 203.881 158.652 202.618C156.967 204.122 155.228 205.483 153.437 206.701C149.256 209.602 144.477 211.053 139.101 211.053C135.005 211.053 131.976 209.474 130.013 206.317C128.136 203.159 127.197 198.722 127.197 193.005C125.746 198.807 123.57 203.287 120.669 206.445C117.768 209.517 114.653 211.053 111.325 211.053ZM275.94 197.485C278.671 197.485 281.017 196.375 282.98 194.157C285.028 191.938 286.393 188.738 287.076 184.557C284.431 182.765 282.383 180.418 280.932 177.517C279.567 174.615 278.884 171.543 278.884 168.301C278.884 166.935 279.012 165.57 279.268 164.205H278.628C275.215 164.205 272.356 165.869 270.052 169.197C267.833 172.439 266.724 177.047 266.724 183.021C266.724 187.714 267.62 191.298 269.412 193.773C271.289 196.247 273.465 197.485 275.94 197.485ZM446.224 184.173C446.224 185.844 446.339 187.475 446.569 189.063C444.743 190.916 443.067 192.443 441.542 193.645C438.726 195.863 435.483 196.973 431.814 196.973C427.291 196.973 423.963 195.181 421.83 191.597C419.782 188.013 418.758 181.783 418.758 172.909C418.758 170.519 418.843 167.191 419.014 162.925H434.63C444.273 162.925 449.094 159.981 449.094 154.093C449.094 152.471 448.795 151.362 448.198 150.765C447.601 150.167 446.619 149.869 445.254 149.869H430.918C442.011 140.055 447.558 128.535 447.558 115.309C447.558 110.53 446.534 106.562 444.486 103.405C442.438 100.247 439.622 98.6686 436.038 98.6686C431.174 98.6686 426.609 100.973 422.342 105.581C418.161 110.189 414.577 116.375 411.59 124.141C408.603 131.906 406.385 140.482 404.934 149.869H397.638C393.798 149.869 391.878 152.258 391.878 157.037C391.878 159.085 392.305 160.578 393.158 161.517C394.097 162.455 395.846 162.925 398.406 162.925H403.398C403.142 166.765 403.014 170.562 403.014 174.317C403.014 198.807 411.718 211.053 429.126 211.053C434.758 211.053 439.75 209.602 444.102 206.701C446.526 205.084 448.845 203.217 451.057 201.098C452.713 203.561 454.771 205.642 457.232 207.341C460.901 209.815 465.296 211.053 470.416 211.053C476.475 211.053 481.893 208.919 486.672 204.653C491.451 200.301 494.651 194.541 496.272 187.373C499.744 187.228 503.053 186.838 506.198 186.203C506.166 187.312 506.15 188.428 506.15 189.549C506.15 197.058 506.79 202.519 508.07 205.933C509.435 209.346 511.739 211.053 514.982 211.053C517.627 211.053 519.547 210.37 520.742 209.005C522.022 207.554 523.131 204.823 524.07 200.813C525.35 195.607 527.014 190.658 529.062 185.965C531.11 181.271 533.158 177.517 535.206 174.701C537.339 171.799 539.046 170.349 540.326 170.349C541.265 170.349 541.734 171.031 541.734 172.397C541.734 172.994 541.649 174.146 541.478 175.853C541.222 177.133 541.094 178.413 541.094 179.693C541.094 183.618 542.246 186.733 544.55 189.037C546.939 191.341 550.395 192.493 554.918 192.493C557.691 192.493 560.337 191.982 562.854 190.96C563.813 196.05 565.864 200.316 569.008 203.757C573.531 208.621 579.888 211.053 588.08 211.053C593.456 211.053 598.064 210.029 601.904 207.981C605.829 205.933 608.987 203.074 611.376 199.405C612.827 197.186 613.552 194.541 613.552 191.469C613.552 189.677 613.211 188.269 612.528 187.245C611.931 186.221 611.077 185.709 609.968 185.709C608.688 185.709 607.536 186.349 606.512 187.629C603.525 191.469 600.88 194.199 598.576 195.821C596.357 197.442 593.499 198.253 590 198.253C585.136 198.253 581.68 196.29 579.632 192.365C589.787 189.89 596.955 186.562 601.136 182.381C605.403 178.114 607.536 173.037 607.536 167.149C607.536 162.114 606.043 158.146 603.056 155.245C600.069 152.258 596.101 150.765 591.152 150.765C585.605 150.765 580.613 152.258 576.176 155.245C571.824 158.231 568.411 162.285 565.936 167.405C564.406 170.518 563.349 173.794 562.765 177.233C561.674 177.764 560.68 178.029 559.782 178.029C557.649 178.029 556.582 176.535 556.582 173.549C556.582 172.695 556.923 170.562 557.606 167.149C558.374 162.882 558.758 160.194 558.758 159.085C558.758 153.538 555.985 150.765 550.438 150.765C547.622 150.765 544.507 151.746 541.094 153.709C537.766 155.671 534.353 158.957 530.854 163.565C527.355 168.173 524.198 174.146 521.382 181.485C521.723 177.73 522.15 174.573 522.662 172.013C523.174 169.453 523.857 166.466 524.71 163.053C525.99 158.274 526.63 155.202 526.63 153.837C526.63 152.642 526.289 151.831 525.606 151.405C524.923 150.978 523.729 150.765 522.022 150.765C518.865 150.765 516.39 151.362 514.598 152.557C512.891 153.666 511.654 155.458 510.886 157.933C509.402 162.625 508.267 167.441 507.48 172.379C503.663 173.225 500.269 173.743 497.296 173.933C496.613 167.362 494.267 161.858 490.256 157.421C486.331 152.898 481.125 150.637 474.64 150.637C469.349 150.637 464.528 152.087 460.176 154.989C455.824 157.805 452.411 161.773 449.936 166.893C447.461 171.927 446.224 177.687 446.224 184.173ZM432.582 110.957C431.302 110.957 429.851 112.578 428.23 115.821C426.694 118.978 425.201 123.415 423.75 129.133C422.385 134.765 421.233 141.037 420.294 147.949C425.329 143.597 429.083 138.733 431.558 133.357C434.118 127.895 435.398 122.946 435.398 118.509C435.398 113.474 434.459 110.957 432.582 110.957ZM471.44 197.485C474.171 197.485 476.517 196.375 478.48 194.157C480.528 191.938 481.893 188.738 482.576 184.557C479.931 182.765 477.883 180.418 476.432 177.517C475.067 174.615 474.384 171.543 474.384 168.301C474.384 166.935 474.512 165.57 474.768 164.205H474.128C470.715 164.205 467.856 165.869 465.552 169.197C463.333 172.439 462.224 177.047 462.224 183.021C462.224 187.714 463.12 191.298 464.912 193.773C466.789 196.247 468.965 197.485 471.44 197.485ZM588.976 163.309C585.819 163.309 583.131 165.143 580.912 168.813C578.779 172.482 577.712 176.919 577.712 182.125V182.381C582.747 181.186 586.715 179.394 589.616 177.005C592.517 174.615 593.968 171.842 593.968 168.685C593.968 167.063 593.499 165.783 592.56 164.845C591.707 163.821 590.512 163.309 588.976 163.309ZM656.504 160.248C665.293 160.248 671.992 163.021 676.6 168.568C681.293 174.029 683.64 181.624 683.64 191.352C683.64 200.056 682.147 207.779 679.16 214.52C676.259 221.176 672.077 226.381 666.616 230.136C661.24 233.805 654.925 235.64 647.672 235.64C641.101 235.64 635.683 234.147 631.416 231.16C627.235 228.088 624.845 224.077 624.248 219.128L624.12 217.72C624.12 215.501 624.803 213.795 626.168 212.6C627.619 211.32 629.624 210.68 632.184 210.68C634.061 210.68 635.555 211.192 636.664 212.216C637.859 213.155 638.883 214.819 639.736 217.208C640.419 219 641.528 220.408 643.064 221.432C644.685 222.456 646.691 222.968 649.08 222.968C654.029 222.968 658.04 221.048 661.112 217.208C664.269 213.283 666.232 207.48 667 199.8C664.781 202.36 662.264 204.195 659.448 205.304C656.632 206.328 653.517 206.84 650.104 206.84C645.837 206.84 641.997 205.944 638.584 204.152C635.256 202.36 632.653 199.885 630.776 196.728C628.899 193.485 627.96 189.901 627.96 185.976C627.96 181.112 629.069 176.76 631.288 172.92C633.592 168.995 636.877 165.923 641.144 163.704C645.496 161.4 650.616 160.248 656.504 160.248ZM653.944 194.04C657.613 194.04 660.472 193.016 662.52 190.968C664.568 188.92 665.592 186.189 665.592 182.776C665.592 179.704 664.739 177.272 663.032 175.48C661.325 173.688 658.936 172.792 655.864 172.792C652.451 172.792 649.677 173.901 647.544 176.12C645.496 178.253 644.472 181.069 644.472 184.568C644.472 187.469 645.325 189.773 647.032 191.48C648.739 193.187 651.043 194.04 653.944 194.04ZM740.81 367.638C741.204 372.667 735.591 375.908 731.432 373.052L708.27 357.147C704.676 354.68 701.988 351.106 700.613 346.97L679.937 284.787C677.879 278.596 685.785 274.032 690.117 278.909L733.632 327.907C736.526 331.166 738.277 335.281 738.617 339.626L740.81 367.638ZM713.93 348.904L730.186 360.066L728.647 340.407C728.477 338.234 727.602 336.176 726.155 334.547L695.57 300.109L710.102 343.815C710.789 345.883 712.134 347.67 713.93 348.904ZM806.066 301.81C811.096 302.204 814.337 296.591 811.481 292.432L795.576 269.27C793.109 265.677 789.535 262.988 785.399 261.613L723.215 240.937C717.025 238.879 712.46 246.785 717.338 251.117L766.335 294.632C769.594 297.526 773.71 299.277 778.055 299.617L806.066 301.81ZM798.495 291.186L778.836 289.647C776.663 289.477 774.605 288.602 772.976 287.155L738.538 256.57L782.244 271.102C784.312 271.789 786.099 273.134 787.332 274.93L798.495 291.186ZM722 186C722 237.915 679.915 280 628 280C592.795 280 562.111 260.647 546.005 232H560.108C574.857 253.726 599.762 268 628 268C673.287 268 710 231.287 710 186C710 140.713 673.287 104 628 104C607.477 104 588.715 111.54 574.332 124H557.344C574.572 104.383 599.84 92 628 92C679.915 92 722 134.085 722 186Z" fill="#CFFFFF"/>
</svg>
